<svg xmlns="http://www.w3.org/2000/svg" width="44" height="44" viewBox="0 0 44 44">
  <defs>
    <style>
      .cls-1 {
        fill: #f7c631;
        fill-rule: evenodd;
      }
    </style>
  </defs>
  <path id="icon-1" class="cls-1" d="M88,780a22,22,0,1,0,22,22A22,22,0,0,0,88,780Zm10.976,5.29C98.982,785.527,99,785.762,99,786a30.064,30.064,0,0,1-.624,6.067,3,3,0,0,0-1.518,5.03,30.019,30.019,0,0,1-2.357,4.7,29.868,29.868,0,0,1-7.175-15.38,29.813,29.813,0,0,1,7.408-3.232A20.022,20.022,0,0,1,98.976,785.29Zm-4.212,19.687a31.865,31.865,0,0,0,5.838,4.437A37.991,37.991,0,0,1,94,810c-1.017,0-2.02-.051-3.017-0.13a3.168,3.168,0,0,0-.073-0.566A31.905,31.905,0,0,0,94.764,804.977ZM88,782a19.958,19.958,0,0,1,3.266.29,31.037,31.037,0,0,0-4.174,1.949c-0.053-.723-0.088-1.452-0.09-2.188C87.335,782.034,87.663,782,88,782Zm5.353,21.509A30.157,30.157,0,0,1,89.78,807.6a2.973,2.973,0,0,0-4.585,1.365,37.715,37.715,0,0,1-11.178-4.648,29.847,29.847,0,0,1,4.327-9.391,3,3,0,0,0,3.419-4.093,30.271,30.271,0,0,1,3.741-3.194A31.882,31.882,0,0,0,93.354,803.509Zm-22.33,9.028a19.891,19.891,0,0,1-3.01-10.141,40.011,40.011,0,0,0,3.726,2.829A31.925,31.925,0,0,0,71,812C71,812.182,71.02,812.357,71.023,812.537Zm1.24-9.379a38.118,38.118,0,0,1-4.133-3.341,19.989,19.989,0,0,1,16.876-17.569q0.013,1.6.177,3.169a32.124,32.124,0,0,0-4.783,3.945,2.982,2.982,0,0,0-3.744,4.49A31.919,31.919,0,0,0,72.264,803.158Zm0.945,12.271a28.73,28.73,0,0,1,.342-9.058,39.758,39.758,0,0,0,11.641,4.646c0.019,0.054.029,0.114,0.053,0.167a29.816,29.816,0,0,1-11.824,4.477C73.35,815.585,73.279,815.506,73.209,815.429ZM88,822a19.913,19.913,0,0,1-12.814-4.651,32.054,32.054,0,0,0,11.445-4.694,2.942,2.942,0,0,0,3.73-.823C91.56,811.94,92.773,812,94,812a39.946,39.946,0,0,0,9.322-1.127c0.69,0.328,1.378.66,2.094,0.941A19.982,19.982,0,0,1,88,822Zm15.54-13.221a30,30,0,0,1-7.628-5.475,31.735,31.735,0,0,0,2.75-5.337C98.774,797.978,98.885,798,99,798a2.992,2.992,0,0,0,1.337-5.672,32.211,32.211,0,0,0,.634-5.534,19.846,19.846,0,0,1,6.195,20.845C105.982,808.076,104.774,808.459,103.54,808.779Z" transform="translate(-66 -780)"/>
</svg>
